<svg xmlns="http://www.w3.org/2000/svg" xmlns:xlink="http://www.w3.org/1999/xlink" width="1024" zoomAndPan="magnify" viewBox="0 0 768 767.999994" height="1024" preserveAspectRatio="xMidYMid meet" version="1.0"><defs><g/><clipPath id="28afbc9cee"><path d="M 76.800781 76.800781 L 691.050781 76.800781 L 691.050781 691.050781 L 76.800781 691.050781 Z M 76.800781 76.800781 " clip-rule="nonzero"/></clipPath></defs><rect x="-76.8" width="921.6" fill="#ffffff" y="-76.799999" height="921.599993" fill-opacity="1"/><rect x="-76.8" width="921.6" fill="#130521" y="-76.799999" height="921.599993" fill-opacity="1"/><g clip-path="url(#28afbc9cee)"><path stroke-linecap="butt" transform="matrix(0.75, 0, 0, 0.75, 76.799999, 76.800016)" fill="none" stroke-linejoin="miter" d="M 0.00104273 0.00102007 L 819.188583 0.00102007 L 819.188583 819.188561 L 0.00104273 819.188561 Z M 0.00104273 0.00102007 " stroke="#ffffff" stroke-width="68" stroke-opacity="1" stroke-miterlimit="4"/></g><g fill="#ff00ff" fill-opacity="1"><g transform="translate(174.437558, 462.444206)"><g><path d="M 139.71875 -98.625 L 139.71875 -164.375 L 172.59375 -164.375 L 172.59375 0 L 139.71875 0 L 139.71875 -65.75 L 41.09375 -65.75 L 41.09375 0 L 8.21875 0 L 8.21875 -164.375 L 41.09375 -164.375 L 41.09375 -98.625 Z M 139.71875 -98.625 "/></g></g></g><g fill="#ff00ff" fill-opacity="1"><g transform="translate(387.718433, 462.444206)"><g><path d="M 172.59375 0 L 41.09375 0 C 35.0625 0 29.546875 -1.46875 24.546875 -4.40625 C 19.546875 -7.351562 15.570312 -11.328125 12.625 -16.328125 C 9.6875 -21.328125 8.21875 -26.84375 8.21875 -32.875 L 8.21875 -131.5 C 8.21875 -137.53125 9.6875 -143.046875 12.625 -148.046875 C 15.570312 -153.046875 19.546875 -157.015625 24.546875 -159.953125 C 29.546875 -162.898438 35.0625 -164.375 41.09375 -164.375 L 172.59375 -164.375 L 172.59375 -131.5 L 41.09375 -131.5 L 41.09375 -32.875 L 172.59375 -32.875 Z M 172.59375 0 "/></g></g></g><g fill="#00ffff" fill-opacity="1"><g transform="translate(199.463386, 468.221901)"><g><path d="M 139.71875 -98.625 L 139.71875 -164.375 L 172.59375 -164.375 L 172.59375 0 L 139.71875 0 L 139.71875 -65.75 L 41.09375 -65.75 L 41.09375 0 L 8.21875 0 L 8.21875 -164.375 L 41.09375 -164.375 L 41.09375 -98.625 Z M 139.71875 -98.625 "/></g></g></g><g fill="#00ffff" fill-opacity="1"><g transform="translate(412.744261, 468.221901)"><g><path d="M 172.59375 0 L 41.09375 0 C 35.0625 0 29.546875 -1.46875 24.546875 -4.40625 C 19.546875 -7.351562 15.570312 -11.328125 12.625 -16.328125 C 9.6875 -21.328125 8.21875 -26.84375 8.21875 -32.875 L 8.21875 -131.5 C 8.21875 -137.53125 9.6875 -143.046875 12.625 -148.046875 C 15.570312 -153.046875 19.546875 -157.015625 24.546875 -159.953125 C 29.546875 -162.898438 35.0625 -164.375 41.09375 -164.375 L 172.59375 -164.375 L 172.59375 -131.5 L 41.09375 -131.5 L 41.09375 -32.875 L 172.59375 -32.875 Z M 172.59375 0 "/></g></g></g><g fill="#ffffff" fill-opacity="1"><g transform="translate(186.950473, 465.333053)"><g><path d="M 139.71875 -98.625 L 139.71875 -164.375 L 172.59375 -164.375 L 172.59375 0 L 139.71875 0 L 139.71875 -65.75 L 41.09375 -65.75 L 41.09375 0 L 8.21875 0 L 8.21875 -164.375 L 41.09375 -164.375 L 41.09375 -98.625 Z M 139.71875 -98.625 "/></g></g></g><g fill="#ffffff" fill-opacity="1"><g transform="translate(400.231348, 465.333053)"><g><path d="M 172.59375 0 L 41.09375 0 C 35.0625 0 29.546875 -1.46875 24.546875 -4.40625 C 19.546875 -7.351562 15.570312 -11.328125 12.625 -16.328125 C 9.6875 -21.328125 8.21875 -26.84375 8.21875 -32.875 L 8.21875 -131.5 C 8.21875 -137.53125 9.6875 -143.046875 12.625 -148.046875 C 15.570312 -153.046875 19.546875 -157.015625 24.546875 -159.953125 C 29.546875 -162.898438 35.0625 -164.375 41.09375 -164.375 L 172.59375 -164.375 L 172.59375 -131.5 L 41.09375 -131.5 L 41.09375 -32.875 L 172.59375 -32.875 Z M 172.59375 0 "/></g></g></g></svg>